<mxfile host="app.diagrams.net" agent="Mozilla/5.0 (Windows NT 10.0; Win64; x64) AppleWebKit/537.36 (KHTML, like Gecko) Chrome/133.0.0.0 Safari/537.36 OPR/118.0.0.0" version="26.2.14">
  <diagram name="Sayfa -1" id="KLiLc5vAUubbsRQLizZz">
    <mxGraphModel dx="1979" dy="1080" grid="1" gridSize="10" guides="1" tooltips="1" connect="1" arrows="1" fold="1" page="1" pageScale="1" pageWidth="1169" pageHeight="1654" math="0" shadow="0">
      <root>
        <mxCell id="0" />
        <mxCell id="1" parent="0" />
        <mxCell id="mDHxfYU0JQhifHVUSU3j-7" value="Application" style="swimlane;whiteSpace=wrap;html=1;startSize=23;" vertex="1" parent="1">
          <mxGeometry x="395" y="20" width="135" height="170" as="geometry" />
        </mxCell>
        <mxCell id="mDHxfYU0JQhifHVUSU3j-2" value="+ floors: int&lt;br&gt;+ elevatorList: string&lt;br&gt;+ elevatorID" style="text;html=1;align=left;verticalAlign=middle;whiteSpace=wrap;rounded=0;" vertex="1" parent="mDHxfYU0JQhifHVUSU3j-7">
          <mxGeometry x="10" y="50" width="110" height="30" as="geometry" />
        </mxCell>
        <mxCell id="mDHxfYU0JQhifHVUSU3j-4" value="+ requestElevator()" style="text;html=1;align=left;verticalAlign=middle;whiteSpace=wrap;rounded=0;" vertex="1" parent="mDHxfYU0JQhifHVUSU3j-7">
          <mxGeometry y="130" width="175" height="10" as="geometry" />
        </mxCell>
        <mxCell id="mDHxfYU0JQhifHVUSU3j-10" style="edgeStyle=orthogonalEdgeStyle;rounded=0;orthogonalLoop=1;jettySize=auto;html=1;exitX=0.5;exitY=1;exitDx=0;exitDy=0;" edge="1" parent="mDHxfYU0JQhifHVUSU3j-7" source="mDHxfYU0JQhifHVUSU3j-4" target="mDHxfYU0JQhifHVUSU3j-4">
          <mxGeometry relative="1" as="geometry" />
        </mxCell>
        <mxCell id="mDHxfYU0JQhifHVUSU3j-11" value="--------------------------------" style="text;html=1;align=center;verticalAlign=middle;whiteSpace=wrap;rounded=0;" vertex="1" parent="mDHxfYU0JQhifHVUSU3j-7">
          <mxGeometry y="90" width="130" height="30" as="geometry" />
        </mxCell>
        <mxCell id="mDHxfYU0JQhifHVUSU3j-46" style="edgeStyle=orthogonalEdgeStyle;rounded=0;orthogonalLoop=1;jettySize=auto;html=1;exitX=0.5;exitY=1;exitDx=0;exitDy=0;" edge="1" parent="mDHxfYU0JQhifHVUSU3j-7" source="mDHxfYU0JQhifHVUSU3j-4" target="mDHxfYU0JQhifHVUSU3j-4">
          <mxGeometry relative="1" as="geometry" />
        </mxCell>
        <mxCell id="mDHxfYU0JQhifHVUSU3j-121" value="SÄ±mulator" style="swimlane;whiteSpace=wrap;html=1;startSize=23;" vertex="1" parent="1">
          <mxGeometry x="670" y="20" width="135" height="170" as="geometry" />
        </mxCell>
        <mxCell id="mDHxfYU0JQhifHVUSU3j-123" value="+ createPassanger();&lt;br&gt;+ selectElevator();" style="text;html=1;align=left;verticalAlign=middle;whiteSpace=wrap;rounded=0;" vertex="1" parent="mDHxfYU0JQhifHVUSU3j-121">
          <mxGeometry y="130" width="175" height="10" as="geometry" />
        </mxCell>
        <mxCell id="mDHxfYU0JQhifHVUSU3j-124" style="edgeStyle=orthogonalEdgeStyle;rounded=0;orthogonalLoop=1;jettySize=auto;html=1;exitX=0.5;exitY=1;exitDx=0;exitDy=0;" edge="1" parent="mDHxfYU0JQhifHVUSU3j-121" source="mDHxfYU0JQhifHVUSU3j-123" target="mDHxfYU0JQhifHVUSU3j-123">
          <mxGeometry relative="1" as="geometry" />
        </mxCell>
        <mxCell id="mDHxfYU0JQhifHVUSU3j-125" value="--------------------------------" style="text;html=1;align=center;verticalAlign=middle;whiteSpace=wrap;rounded=0;" vertex="1" parent="mDHxfYU0JQhifHVUSU3j-121">
          <mxGeometry y="70" width="130" height="30" as="geometry" />
        </mxCell>
        <mxCell id="mDHxfYU0JQhifHVUSU3j-126" style="edgeStyle=orthogonalEdgeStyle;rounded=0;orthogonalLoop=1;jettySize=auto;html=1;exitX=0.5;exitY=1;exitDx=0;exitDy=0;" edge="1" parent="mDHxfYU0JQhifHVUSU3j-121" source="mDHxfYU0JQhifHVUSU3j-123" target="mDHxfYU0JQhifHVUSU3j-123">
          <mxGeometry relative="1" as="geometry" />
        </mxCell>
        <mxCell id="mDHxfYU0JQhifHVUSU3j-169" style="edgeStyle=orthogonalEdgeStyle;rounded=0;orthogonalLoop=1;jettySize=auto;html=1;" edge="1" parent="1" source="mDHxfYU0JQhifHVUSU3j-131">
          <mxGeometry relative="1" as="geometry">
            <mxPoint x="735" y="180" as="targetPoint" />
          </mxGeometry>
        </mxCell>
        <mxCell id="mDHxfYU0JQhifHVUSU3j-131" value="SaveLog" style="swimlane;whiteSpace=wrap;html=1;startSize=23;" vertex="1" parent="1">
          <mxGeometry x="670" y="250" width="130" height="170" as="geometry" />
        </mxCell>
        <mxCell id="mDHxfYU0JQhifHVUSU3j-132" value="+ saveFiles();&lt;br&gt;+ clearLog();" style="text;html=1;align=left;verticalAlign=middle;whiteSpace=wrap;rounded=0;" vertex="1" parent="mDHxfYU0JQhifHVUSU3j-131">
          <mxGeometry y="130" width="175" height="10" as="geometry" />
        </mxCell>
        <mxCell id="mDHxfYU0JQhifHVUSU3j-133" style="edgeStyle=orthogonalEdgeStyle;rounded=0;orthogonalLoop=1;jettySize=auto;html=1;exitX=0.5;exitY=1;exitDx=0;exitDy=0;" edge="1" parent="mDHxfYU0JQhifHVUSU3j-131" source="mDHxfYU0JQhifHVUSU3j-132" target="mDHxfYU0JQhifHVUSU3j-132">
          <mxGeometry relative="1" as="geometry" />
        </mxCell>
        <mxCell id="mDHxfYU0JQhifHVUSU3j-134" value="--------------------------------" style="text;html=1;align=center;verticalAlign=middle;whiteSpace=wrap;rounded=0;" vertex="1" parent="mDHxfYU0JQhifHVUSU3j-131">
          <mxGeometry y="70" width="130" height="30" as="geometry" />
        </mxCell>
        <mxCell id="mDHxfYU0JQhifHVUSU3j-135" style="edgeStyle=orthogonalEdgeStyle;rounded=0;orthogonalLoop=1;jettySize=auto;html=1;exitX=0.5;exitY=1;exitDx=0;exitDy=0;" edge="1" parent="mDHxfYU0JQhifHVUSU3j-131" source="mDHxfYU0JQhifHVUSU3j-132" target="mDHxfYU0JQhifHVUSU3j-132">
          <mxGeometry relative="1" as="geometry" />
        </mxCell>
        <mxCell id="mDHxfYU0JQhifHVUSU3j-136" value="+ logFiles: string" style="text;html=1;align=left;verticalAlign=middle;whiteSpace=wrap;rounded=0;" vertex="1" parent="mDHxfYU0JQhifHVUSU3j-131">
          <mxGeometry y="40" width="175" height="10" as="geometry" />
        </mxCell>
        <mxCell id="mDHxfYU0JQhifHVUSU3j-168" style="edgeStyle=orthogonalEdgeStyle;rounded=0;orthogonalLoop=1;jettySize=auto;html=1;entryX=0.5;entryY=1;entryDx=0;entryDy=0;" edge="1" parent="1" source="mDHxfYU0JQhifHVUSU3j-138" target="mDHxfYU0JQhifHVUSU3j-7">
          <mxGeometry relative="1" as="geometry" />
        </mxCell>
        <mxCell id="mDHxfYU0JQhifHVUSU3j-138" value="Program" style="swimlane;whiteSpace=wrap;html=1;startSize=23;" vertex="1" parent="1">
          <mxGeometry x="397.5" y="220" width="130" height="130" as="geometry" />
        </mxCell>
        <mxCell id="mDHxfYU0JQhifHVUSU3j-139" value="+ chooseElevator();" style="text;html=1;align=left;verticalAlign=middle;whiteSpace=wrap;rounded=0;" vertex="1" parent="mDHxfYU0JQhifHVUSU3j-138">
          <mxGeometry y="100" width="175" height="10" as="geometry" />
        </mxCell>
        <mxCell id="mDHxfYU0JQhifHVUSU3j-140" style="edgeStyle=orthogonalEdgeStyle;rounded=0;orthogonalLoop=1;jettySize=auto;html=1;exitX=0.5;exitY=1;exitDx=0;exitDy=0;" edge="1" parent="mDHxfYU0JQhifHVUSU3j-138" source="mDHxfYU0JQhifHVUSU3j-139" target="mDHxfYU0JQhifHVUSU3j-139">
          <mxGeometry relative="1" as="geometry" />
        </mxCell>
        <mxCell id="mDHxfYU0JQhifHVUSU3j-141" value="--------------------------------" style="text;html=1;align=center;verticalAlign=middle;whiteSpace=wrap;rounded=0;" vertex="1" parent="mDHxfYU0JQhifHVUSU3j-138">
          <mxGeometry y="50" width="130" height="30" as="geometry" />
        </mxCell>
        <mxCell id="mDHxfYU0JQhifHVUSU3j-142" style="edgeStyle=orthogonalEdgeStyle;rounded=0;orthogonalLoop=1;jettySize=auto;html=1;exitX=0.5;exitY=1;exitDx=0;exitDy=0;" edge="1" parent="mDHxfYU0JQhifHVUSU3j-138" source="mDHxfYU0JQhifHVUSU3j-139" target="mDHxfYU0JQhifHVUSU3j-139">
          <mxGeometry relative="1" as="geometry" />
        </mxCell>
        <mxCell id="mDHxfYU0JQhifHVUSU3j-166" style="edgeStyle=orthogonalEdgeStyle;rounded=0;orthogonalLoop=1;jettySize=auto;html=1;" edge="1" parent="1" source="mDHxfYU0JQhifHVUSU3j-144">
          <mxGeometry relative="1" as="geometry">
            <mxPoint x="462.5" y="349.9999999999998" as="targetPoint" />
          </mxGeometry>
        </mxCell>
        <mxCell id="mDHxfYU0JQhifHVUSU3j-144" value="Elevator" style="swimlane;whiteSpace=wrap;html=1;startSize=23;" vertex="1" parent="1">
          <mxGeometry x="397.5" y="457.5" width="130" height="155" as="geometry" />
        </mxCell>
        <mxCell id="mDHxfYU0JQhifHVUSU3j-145" value="+ directionLight()&lt;br&gt;+ moveFloor();" style="text;html=1;align=left;verticalAlign=middle;whiteSpace=wrap;rounded=0;" vertex="1" parent="mDHxfYU0JQhifHVUSU3j-144">
          <mxGeometry y="110" width="175" height="10" as="geometry" />
        </mxCell>
        <mxCell id="mDHxfYU0JQhifHVUSU3j-146" style="edgeStyle=orthogonalEdgeStyle;rounded=0;orthogonalLoop=1;jettySize=auto;html=1;exitX=0.5;exitY=1;exitDx=0;exitDy=0;" edge="1" parent="mDHxfYU0JQhifHVUSU3j-144" source="mDHxfYU0JQhifHVUSU3j-145" target="mDHxfYU0JQhifHVUSU3j-145">
          <mxGeometry relative="1" as="geometry" />
        </mxCell>
        <mxCell id="mDHxfYU0JQhifHVUSU3j-147" value="--------------------------------" style="text;html=1;align=center;verticalAlign=middle;whiteSpace=wrap;rounded=0;" vertex="1" parent="mDHxfYU0JQhifHVUSU3j-144">
          <mxGeometry y="70" width="130" height="30" as="geometry" />
        </mxCell>
        <mxCell id="mDHxfYU0JQhifHVUSU3j-148" style="edgeStyle=orthogonalEdgeStyle;rounded=0;orthogonalLoop=1;jettySize=auto;html=1;exitX=0.5;exitY=1;exitDx=0;exitDy=0;" edge="1" parent="mDHxfYU0JQhifHVUSU3j-144" source="mDHxfYU0JQhifHVUSU3j-145" target="mDHxfYU0JQhifHVUSU3j-145">
          <mxGeometry relative="1" as="geometry" />
        </mxCell>
        <mxCell id="mDHxfYU0JQhifHVUSU3j-149" value="+ currentFloor: string&lt;br&gt;+ direction; string&lt;br&gt;+ passangerCount; int" style="text;html=1;align=left;verticalAlign=middle;whiteSpace=wrap;rounded=0;" vertex="1" parent="mDHxfYU0JQhifHVUSU3j-144">
          <mxGeometry y="40" width="175" height="10" as="geometry" />
        </mxCell>
        <mxCell id="mDHxfYU0JQhifHVUSU3j-164" style="edgeStyle=orthogonalEdgeStyle;rounded=0;orthogonalLoop=1;jettySize=auto;html=1;entryX=1;entryY=0.25;entryDx=0;entryDy=0;" edge="1" parent="1" source="mDHxfYU0JQhifHVUSU3j-150" target="mDHxfYU0JQhifHVUSU3j-147">
          <mxGeometry relative="1" as="geometry" />
        </mxCell>
        <mxCell id="mDHxfYU0JQhifHVUSU3j-150" value="Passanger" style="swimlane;whiteSpace=wrap;html=1;startSize=23;" vertex="1" parent="1">
          <mxGeometry x="670" y="460" width="150" height="150" as="geometry" />
        </mxCell>
        <mxCell id="mDHxfYU0JQhifHVUSU3j-151" value="+ pressButton();" style="text;html=1;align=left;verticalAlign=middle;whiteSpace=wrap;rounded=0;" vertex="1" parent="mDHxfYU0JQhifHVUSU3j-150">
          <mxGeometry y="110" width="175" height="10" as="geometry" />
        </mxCell>
        <mxCell id="mDHxfYU0JQhifHVUSU3j-152" style="edgeStyle=orthogonalEdgeStyle;rounded=0;orthogonalLoop=1;jettySize=auto;html=1;exitX=0.5;exitY=1;exitDx=0;exitDy=0;" edge="1" parent="mDHxfYU0JQhifHVUSU3j-150" source="mDHxfYU0JQhifHVUSU3j-151" target="mDHxfYU0JQhifHVUSU3j-151">
          <mxGeometry relative="1" as="geometry" />
        </mxCell>
        <mxCell id="mDHxfYU0JQhifHVUSU3j-153" value="--------------------------------" style="text;html=1;align=center;verticalAlign=middle;whiteSpace=wrap;rounded=0;" vertex="1" parent="mDHxfYU0JQhifHVUSU3j-150">
          <mxGeometry x="10" y="70" width="130" height="30" as="geometry" />
        </mxCell>
        <mxCell id="mDHxfYU0JQhifHVUSU3j-154" style="edgeStyle=orthogonalEdgeStyle;rounded=0;orthogonalLoop=1;jettySize=auto;html=1;exitX=0.5;exitY=1;exitDx=0;exitDy=0;" edge="1" parent="mDHxfYU0JQhifHVUSU3j-150" source="mDHxfYU0JQhifHVUSU3j-151" target="mDHxfYU0JQhifHVUSU3j-151">
          <mxGeometry relative="1" as="geometry" />
        </mxCell>
        <mxCell id="mDHxfYU0JQhifHVUSU3j-155" value="+ depatureFloor; string&lt;br&gt;+ destinationFloor; string" style="text;html=1;align=left;verticalAlign=middle;whiteSpace=wrap;rounded=0;" vertex="1" parent="mDHxfYU0JQhifHVUSU3j-150">
          <mxGeometry y="40" width="190" height="10" as="geometry" />
        </mxCell>
        <mxCell id="mDHxfYU0JQhifHVUSU3j-162" style="edgeStyle=orthogonalEdgeStyle;rounded=0;orthogonalLoop=1;jettySize=auto;html=1;entryX=0;entryY=0.25;entryDx=0;entryDy=0;" edge="1" parent="1" source="mDHxfYU0JQhifHVUSU3j-156" target="mDHxfYU0JQhifHVUSU3j-147">
          <mxGeometry relative="1" as="geometry" />
        </mxCell>
        <mxCell id="mDHxfYU0JQhifHVUSU3j-156" value="ElevatorControlPanel" style="swimlane;whiteSpace=wrap;html=1;startSize=23;" vertex="1" parent="1">
          <mxGeometry x="90" y="470" width="170" height="130" as="geometry" />
        </mxCell>
        <mxCell id="mDHxfYU0JQhifHVUSU3j-157" value="+ targetButton();&lt;br&gt;+ openDoor();&lt;br&gt;+ closeDoor();&lt;br&gt;+ emergencyButton();" style="text;html=1;align=left;verticalAlign=middle;whiteSpace=wrap;rounded=0;" vertex="1" parent="mDHxfYU0JQhifHVUSU3j-156">
          <mxGeometry y="90" width="175" height="10" as="geometry" />
        </mxCell>
        <mxCell id="mDHxfYU0JQhifHVUSU3j-158" style="edgeStyle=orthogonalEdgeStyle;rounded=0;orthogonalLoop=1;jettySize=auto;html=1;exitX=0.5;exitY=1;exitDx=0;exitDy=0;" edge="1" parent="mDHxfYU0JQhifHVUSU3j-156" source="mDHxfYU0JQhifHVUSU3j-157" target="mDHxfYU0JQhifHVUSU3j-157">
          <mxGeometry relative="1" as="geometry" />
        </mxCell>
        <mxCell id="mDHxfYU0JQhifHVUSU3j-159" value="--------------------------------" style="text;html=1;align=center;verticalAlign=middle;whiteSpace=wrap;rounded=0;" vertex="1" parent="mDHxfYU0JQhifHVUSU3j-156">
          <mxGeometry x="10" y="40" width="130" height="30" as="geometry" />
        </mxCell>
        <mxCell id="mDHxfYU0JQhifHVUSU3j-160" style="edgeStyle=orthogonalEdgeStyle;rounded=0;orthogonalLoop=1;jettySize=auto;html=1;exitX=0.5;exitY=1;exitDx=0;exitDy=0;" edge="1" parent="mDHxfYU0JQhifHVUSU3j-156" source="mDHxfYU0JQhifHVUSU3j-157" target="mDHxfYU0JQhifHVUSU3j-157">
          <mxGeometry relative="1" as="geometry" />
        </mxCell>
        <mxCell id="mDHxfYU0JQhifHVUSU3j-183" style="edgeStyle=orthogonalEdgeStyle;rounded=0;orthogonalLoop=1;jettySize=auto;html=1;entryX=0.5;entryY=1;entryDx=0;entryDy=0;" edge="1" parent="1" source="mDHxfYU0JQhifHVUSU3j-170" target="mDHxfYU0JQhifHVUSU3j-144">
          <mxGeometry relative="1" as="geometry" />
        </mxCell>
        <mxCell id="mDHxfYU0JQhifHVUSU3j-170" value="Direction" style="swimlane;whiteSpace=wrap;html=1;startSize=23;" vertex="1" parent="1">
          <mxGeometry x="190" y="672" width="130" height="155" as="geometry" />
        </mxCell>
        <mxCell id="mDHxfYU0JQhifHVUSU3j-171" value="+ callElevator();" style="text;html=1;align=left;verticalAlign=middle;whiteSpace=wrap;rounded=0;" vertex="1" parent="mDHxfYU0JQhifHVUSU3j-170">
          <mxGeometry y="110" width="175" height="10" as="geometry" />
        </mxCell>
        <mxCell id="mDHxfYU0JQhifHVUSU3j-172" style="edgeStyle=orthogonalEdgeStyle;rounded=0;orthogonalLoop=1;jettySize=auto;html=1;exitX=0.5;exitY=1;exitDx=0;exitDy=0;" edge="1" parent="mDHxfYU0JQhifHVUSU3j-170" source="mDHxfYU0JQhifHVUSU3j-171" target="mDHxfYU0JQhifHVUSU3j-171">
          <mxGeometry relative="1" as="geometry" />
        </mxCell>
        <mxCell id="mDHxfYU0JQhifHVUSU3j-173" value="--------------------------------" style="text;html=1;align=center;verticalAlign=middle;whiteSpace=wrap;rounded=0;" vertex="1" parent="mDHxfYU0JQhifHVUSU3j-170">
          <mxGeometry y="70" width="130" height="30" as="geometry" />
        </mxCell>
        <mxCell id="mDHxfYU0JQhifHVUSU3j-174" style="edgeStyle=orthogonalEdgeStyle;rounded=0;orthogonalLoop=1;jettySize=auto;html=1;exitX=0.5;exitY=1;exitDx=0;exitDy=0;" edge="1" parent="mDHxfYU0JQhifHVUSU3j-170" source="mDHxfYU0JQhifHVUSU3j-171" target="mDHxfYU0JQhifHVUSU3j-171">
          <mxGeometry relative="1" as="geometry" />
        </mxCell>
        <mxCell id="mDHxfYU0JQhifHVUSU3j-175" value="+ upGo; string&lt;br&gt;+ downGo; string" style="text;html=1;align=left;verticalAlign=middle;whiteSpace=wrap;rounded=0;" vertex="1" parent="mDHxfYU0JQhifHVUSU3j-170">
          <mxGeometry y="40" width="175" height="10" as="geometry" />
        </mxCell>
        <mxCell id="mDHxfYU0JQhifHVUSU3j-182" style="edgeStyle=orthogonalEdgeStyle;rounded=0;orthogonalLoop=1;jettySize=auto;html=1;entryX=0.5;entryY=1;entryDx=0;entryDy=0;" edge="1" parent="1" source="mDHxfYU0JQhifHVUSU3j-176" target="mDHxfYU0JQhifHVUSU3j-144">
          <mxGeometry relative="1" as="geometry" />
        </mxCell>
        <mxCell id="mDHxfYU0JQhifHVUSU3j-176" value="Floor" style="swimlane;whiteSpace=wrap;html=1;startSize=23;" vertex="1" parent="1">
          <mxGeometry x="550" y="672" width="130" height="155" as="geometry" />
        </mxCell>
        <mxCell id="mDHxfYU0JQhifHVUSU3j-178" style="edgeStyle=orthogonalEdgeStyle;rounded=0;orthogonalLoop=1;jettySize=auto;html=1;exitX=0.5;exitY=1;exitDx=0;exitDy=0;" edge="1" parent="mDHxfYU0JQhifHVUSU3j-176">
          <mxGeometry relative="1" as="geometry">
            <mxPoint x="87.5" y="120" as="sourcePoint" />
            <mxPoint x="87.5" y="120" as="targetPoint" />
          </mxGeometry>
        </mxCell>
        <mxCell id="mDHxfYU0JQhifHVUSU3j-179" value="--------------------------------" style="text;html=1;align=center;verticalAlign=middle;whiteSpace=wrap;rounded=0;" vertex="1" parent="mDHxfYU0JQhifHVUSU3j-176">
          <mxGeometry y="70" width="130" height="30" as="geometry" />
        </mxCell>
        <mxCell id="mDHxfYU0JQhifHVUSU3j-180" style="edgeStyle=orthogonalEdgeStyle;rounded=0;orthogonalLoop=1;jettySize=auto;html=1;exitX=0.5;exitY=1;exitDx=0;exitDy=0;" edge="1" parent="mDHxfYU0JQhifHVUSU3j-176">
          <mxGeometry relative="1" as="geometry">
            <mxPoint x="87.5" y="120" as="sourcePoint" />
            <mxPoint x="87.5" y="120" as="targetPoint" />
          </mxGeometry>
        </mxCell>
        <mxCell id="mDHxfYU0JQhifHVUSU3j-181" value="+ floorID; string&lt;br&gt;+ floorName; string" style="text;html=1;align=left;verticalAlign=middle;whiteSpace=wrap;rounded=0;" vertex="1" parent="mDHxfYU0JQhifHVUSU3j-176">
          <mxGeometry y="40" width="175" height="10" as="geometry" />
        </mxCell>
      </root>
    </mxGraphModel>
  </diagram>
</mxfile>
